<svg width="293" height="258" viewBox="0 0 293 258" fill="none" xmlns="http://www.w3.org/2000/svg">
<path d="M148.332 61.5815C154.99 61.5815 161.15 60.2696 167.401 59.6588C178.001 58.7518 188.676 59.3355 199.114 61.393C213.259 64.0697 229.583 70.245 243.02 83.5154C254.005 94.3579 260.693 107.779 264.132 120.13C267.674 132.695 268.4 145.887 266.258 158.765C264.637 168.242 261.462 176.928 256.215 183.647C232.667 211.168 140.295 201.81 116.581 192.235C41.1059 168.499 -1.4574 66.1357 11.6999 24.6808C16.3521 10.023 29.2304 0.439655 47.432 2.73181C61.954 4.55649 79.1 13.8156 93.0791 26.5356C107.352 39.5346 119.137 54.9237 136.125 59.885C140.09 61.0389 144.202 61.6104 148.332 61.5815V61.5815Z" fill="#F37A20"/>
<path opacity="0.9" d="M148.332 61.5815C154.99 61.5815 161.15 60.2696 167.401 59.6588C178.001 58.7518 188.676 59.3355 199.114 61.393C213.259 64.0697 229.583 70.245 243.02 83.5154C254.005 94.3579 260.693 107.779 264.132 120.13C267.674 132.695 268.4 145.887 266.258 158.765C264.637 168.242 261.462 176.928 256.215 183.647C232.667 211.168 140.295 201.81 116.581 192.235C41.1059 168.499 -1.4574 66.1357 11.6999 24.6808C16.3521 10.023 29.2304 0.439655 47.432 2.73181C61.954 4.55649 79.1 13.8156 93.0791 26.5356C107.352 39.5346 119.137 54.9237 136.125 59.885C140.09 61.0389 144.202 61.6104 148.332 61.5815V61.5815Z" fill="white"/>
<path d="M146.5 257.38C227.24 257.38 292.693 253.559 292.693 248.845C292.693 244.131 227.24 240.31 146.5 240.31C65.7598 240.31 0.306885 244.131 0.306885 248.845C0.306885 253.559 65.7598 257.38 146.5 257.38Z" fill="#F5F5F5"/>
<path d="M77.7955 243.039C78.3674 243.323 79.0278 243.372 79.6353 243.175C79.7235 243.105 79.7882 243.01 79.8205 242.902C79.8529 242.794 79.8514 242.679 79.8162 242.572C79.7733 242.38 79.657 242.212 79.492 242.104C78.6174 241.524 76.2272 241.991 76.1292 242.014C76.1002 242.02 76.0737 242.035 76.0534 242.056C76.0332 242.078 76.0201 242.105 76.0161 242.134C76.013 242.162 76.0177 242.19 76.0297 242.216C76.0416 242.241 76.0604 242.262 76.0839 242.278C76.6305 242.582 77.2033 242.837 77.7955 243.039V243.039ZM79.0773 242.225C79.1674 242.254 79.2535 242.295 79.3337 242.346C79.3847 242.376 79.4292 242.416 79.4642 242.464C79.4992 242.512 79.524 242.567 79.5372 242.624C79.5749 242.828 79.5372 242.903 79.4618 242.941C79.0698 243.22 77.6145 242.738 76.5966 242.187C77.4183 242.041 78.2604 242.054 79.0773 242.225V242.225Z" fill="#F37A20"/>
<path d="M76.114 242.293H76.1743C76.966 242.21 78.753 241.426 78.8661 240.739C78.8661 240.581 78.8661 240.355 78.4815 240.189C78.3504 240.133 78.2094 240.104 78.0668 240.104C77.9243 240.104 77.7832 240.133 77.6521 240.189C76.7172 240.551 76.0536 242.051 76.0235 242.112C76.0122 242.134 76.0063 242.158 76.0063 242.183C76.0063 242.208 76.0122 242.233 76.0235 242.255C76.0494 242.276 76.0808 242.289 76.114 242.293V242.293ZM78.2855 240.43H78.3684C78.6022 240.536 78.5871 240.641 78.5795 240.672C78.5117 241.086 77.26 241.75 76.408 241.938C76.69 241.31 77.1586 240.783 77.7501 240.43C77.9226 240.365 78.113 240.365 78.2855 240.43Z" fill="#F37A20"/>
<path d="M75.4656 241.938H68.8379C68.7216 241.934 68.6081 241.975 68.521 242.052C68.434 242.129 68.38 242.237 68.3704 242.353L67.8426 247.752C67.8344 247.89 67.8544 248.028 67.9014 248.158C67.9484 248.288 68.0214 248.407 68.116 248.508C68.2105 248.609 68.3246 248.689 68.4513 248.745C68.578 248.8 68.7147 248.829 68.853 248.83C71.2432 248.792 74.6814 248.649 77.6823 248.649C81.196 248.649 81.4523 248.845 85.5767 248.845C88.0649 248.845 88.4419 246.327 87.3712 246.093C82.4928 245.052 81.4071 244.947 76.9886 242.413C76.5294 242.129 76.0053 241.965 75.4656 241.938V241.938Z" fill="#263238"/>
<path d="M45.3885 243.386C46.0396 243.461 46.696 243.298 47.2358 242.926C47.3112 242.842 47.3594 242.738 47.3742 242.626C47.389 242.514 47.3697 242.401 47.3187 242.3C47.2811 242.216 47.2249 242.142 47.1544 242.083C47.0838 242.025 47.0008 241.983 46.9115 241.961C45.9389 241.689 43.6467 242.896 43.5487 242.949C43.5212 242.962 43.4977 242.982 43.4805 243.007C43.4633 243.032 43.453 243.062 43.4507 243.092C43.4516 243.12 43.4616 243.147 43.4793 243.169C43.497 243.191 43.5214 243.206 43.5487 243.213C44.1556 243.325 44.7713 243.383 45.3885 243.386ZM46.5195 242.21C46.612 242.197 46.7059 242.197 46.7984 242.21C46.8538 242.22 46.9056 242.244 46.9492 242.279C46.9927 242.315 47.0264 242.361 47.0473 242.413C47.1227 242.587 47.0473 242.677 47.0473 242.73C46.708 243.122 45.1698 243.13 44.0313 242.971C44.8108 242.579 45.6529 242.327 46.5195 242.225V242.21Z" fill="#F37A20"/>
<path d="M43.5788 243.228H43.6391C44.3931 242.896 46.067 241.584 46.0519 240.898C46.0519 240.739 45.969 240.536 45.5769 240.498C45.28 240.472 44.984 240.558 44.7475 240.739C44.1046 241.383 43.6575 242.197 43.4581 243.084C43.4461 243.104 43.4397 243.126 43.4397 243.148C43.4397 243.171 43.4461 243.193 43.4581 243.213C43.4761 243.223 43.4961 243.23 43.5169 243.233C43.5376 243.235 43.5587 243.234 43.5788 243.228ZM45.4185 240.77H45.509C45.7578 240.77 45.7654 240.898 45.7654 240.928C45.7654 241.343 44.6344 242.376 43.8201 242.82C43.9975 242.11 44.3681 241.463 44.8907 240.951C45.0419 240.834 45.2275 240.77 45.4185 240.77V240.77Z" fill="#F37A20"/>
<path d="M41.6109 241.938H34.9833C34.8619 241.94 34.7443 241.981 34.6489 242.056C34.5534 242.131 34.4854 242.235 34.4555 242.353L33.0983 247.752C33.0629 247.88 33.0581 248.015 33.0842 248.146C33.1104 248.276 33.1668 248.399 33.2489 248.504C33.331 248.608 33.4365 248.693 33.557 248.749C33.6775 248.806 33.8097 248.834 33.9428 248.83C36.333 248.792 39.7938 248.649 42.8023 248.649C46.3159 248.649 44.9285 248.845 49.0529 248.845C51.5411 248.845 52.3102 246.327 51.2697 246.093C46.5496 245.052 47.0925 244.947 43.0662 242.413C42.6345 242.123 42.1307 241.959 41.6109 241.938Z" fill="#263238"/>
<path d="M70.9792 88.2128C70.9792 88.2128 63.9369 134.848 61.1773 152.16C58.6514 168.19 48.3065 220.57 44.9361 236.758C44.7099 237.867 44.6496 238.892 44.0539 239.774C44.8532 240.8 44.2198 242.956 44.2198 242.956L33.6638 244.027C33.3309 243.607 33.0915 243.12 32.9614 242.6C32.8314 242.08 32.8138 241.538 32.9098 241.011C33.0154 240.257 34.0106 238.832 34.2142 236.359C35.5639 220.027 41.5657 175.285 43.0888 153.562C44.5214 133.166 50.0407 88.2203 50.0407 88.2203L70.9792 88.2128Z" fill="#F37A20"/>
<path opacity="0.3" d="M64.9774 111.436C57.9426 116.465 59.7974 137.773 60.9812 153.577C61.0566 153.079 61.1396 152.604 61.2074 152.152C62.7154 142.704 65.4675 124.488 67.6843 109.928C67.3299 109.792 65.3393 111.18 64.9774 111.436Z" fill="black"/>
<path d="M82.5003 88.2128C82.5003 88.2128 82.0479 133.604 81.5276 152.122C81.0601 168.491 81.0149 221.957 77.6747 237.181C77.3354 238.734 78.1271 239.043 77.9763 239.661C77.9249 239.875 77.8846 240.092 77.8556 240.31C77.7983 240.724 77.6148 241.11 77.3302 241.416C77.0456 241.723 76.6735 241.934 76.2647 242.021L68.5287 243.77C68.2002 243.845 67.8558 243.79 67.5666 243.617C67.2775 243.445 67.0658 243.167 66.9754 242.843C66.7374 241.833 66.641 240.795 66.6889 239.759C66.6889 238.915 67.0885 237.143 67.0357 236.125C66.0178 217.003 63.4769 168.642 63.0018 153.585C62.3534 132.97 61.1545 88.2128 61.1545 88.2128H82.5003Z" fill="#F37A20"/>
<path d="M53.3582 44.6617C52.2573 46.6975 51.0962 48.854 50.0255 50.9652C48.9548 53.0764 47.854 55.2328 46.821 57.3742C46.3083 58.4449 45.8031 59.5155 45.313 60.5938C44.8229 61.672 44.3479 62.7427 43.8955 63.8133C43.0161 65.9092 42.2435 68.0483 41.5807 70.2223L38.0821 65.1253C38.7472 65.2878 39.4222 65.4062 40.1029 65.4797C40.7976 65.5441 41.4967 65.5441 42.1914 65.4797C42.9225 65.4361 43.6474 65.3199 44.3554 65.1328C44.7173 65.0424 45.1094 64.9368 45.4487 64.8162C45.6221 64.7558 45.8106 64.6955 45.9765 64.6277L46.2404 64.5372L46.3535 64.4919C46.3535 64.4919 46.4365 64.4919 46.4289 64.4919C46.8479 64.056 47.4228 63.8043 48.0273 63.7923C48.6318 63.7803 49.2163 64.0089 49.6523 64.4278C50.0882 64.8468 50.3399 65.4218 50.3519 66.0263C50.3639 66.6307 50.1353 67.2152 49.7164 67.6512L49.3921 68.0885C49.2941 68.2167 49.2036 68.3449 49.1056 68.458C48.9096 68.6917 48.7135 68.9028 48.51 69.129C47.2659 70.417 45.7763 71.4425 44.1292 72.145C43.0121 72.6258 41.8394 72.9652 40.6382 73.1554C39.4351 73.3536 38.2136 73.4168 36.9964 73.3439C36.4909 73.3207 35.9949 73.1981 35.5368 72.9832C35.0787 72.7683 34.6674 72.4652 34.3264 72.0913C33.9854 71.7174 33.7214 71.28 33.5495 70.8041C33.3776 70.3282 33.3011 69.823 33.3244 69.3175C33.3362 69.1121 33.3639 68.9079 33.4073 68.7068L33.5054 68.2544C34.0726 65.6789 34.8055 63.1427 35.6995 60.6616C36.544 58.2262 37.5091 55.8813 38.5195 53.5589C39.5298 51.2366 40.6156 48.9746 41.739 46.7729C42.8625 44.5713 44.001 42.3469 45.3507 40.1076C45.6478 39.5808 46.0456 39.1177 46.5217 38.7447C46.9977 38.3717 47.5425 38.0961 48.1251 37.9337C48.7076 37.7713 49.3164 37.7252 49.9167 37.798C50.5171 37.8709 51.0972 38.0612 51.624 38.3583C52.1507 38.6553 52.6139 39.0532 52.9868 39.5293C53.3598 40.0053 53.6354 40.5501 53.7979 41.1326C53.9603 41.7152 54.0064 42.324 53.9335 42.9243C53.8607 43.5247 53.6703 44.1048 53.3733 44.6316L53.3582 44.6617Z" fill="#FFC3BD"/>
<path d="M45.5242 65.0801L49.0831 62.328L52.0991 68.6465C52.0991 68.6465 49.166 70.4486 46.429 69.4005L45.5242 65.0801Z" fill="#FFC3BD"/>
<path d="M54.2931 58.8068L55.8162 64.8312L52.0764 68.6465L49.083 62.3279L54.2931 58.8068Z" fill="#FFC3BD"/>
<path d="M76.2195 14.9994C76.2195 15.4895 76.408 15.9118 76.7247 15.9419C77.0414 15.9721 77.3354 15.5951 77.3731 15.105C77.4108 14.6149 77.1922 14.2002 76.8679 14.17C76.5437 14.1399 76.2572 14.5169 76.2195 14.9994Z" fill="#263238"/>
<path d="M76.3779 15.9042C76.835 17.4484 77.5023 18.9225 78.361 20.2849C78.007 20.4938 77.6115 20.6223 77.2023 20.6614C76.7932 20.7005 76.3805 20.6492 75.9934 20.5111L76.3779 15.9042Z" fill="#ED847E"/>
<path d="M107.292 43.4177L107.005 36.5412L99.752 38.5996C99.8874 39.7713 100.28 40.8987 100.902 41.901C101.524 42.9033 102.359 43.756 103.349 44.3979L107.292 43.4177Z" fill="#FFC3BD"/>
<path d="M104.532 31.5573L98.3345 34.9955L99.7746 38.5996L107.013 36.5412L104.532 31.5573Z" fill="#FFC3BD"/>
<path d="M104.419 27.9983H97.7765C97.6103 28.0012 97.4509 28.065 97.3286 28.1775C97.2063 28.2901 97.1296 28.4437 97.113 28.6091L95.8839 41.3818C95.8754 41.459 95.8833 41.5371 95.9072 41.611C95.931 41.6849 95.9702 41.753 96.0222 41.8106C96.0742 41.8683 96.1378 41.9144 96.2088 41.9457C96.2798 41.9771 96.3567 41.993 96.4344 41.9926H103.07C103.236 41.9883 103.396 41.9243 103.519 41.8121C103.642 41.7 103.721 41.5472 103.741 41.3818L104.962 28.6091C104.973 28.5321 104.967 28.4536 104.945 28.3791C104.922 28.3047 104.884 28.236 104.832 28.1779C104.781 28.1197 104.717 28.0735 104.646 28.0425C104.574 28.0115 104.497 27.9965 104.419 27.9983V27.9983Z" fill="#F37A20"/>
<path d="M103.959 27.9984H97.3241C97.1579 28.0012 96.9985 28.065 96.8762 28.1776C96.7539 28.2901 96.6771 28.4437 96.6606 28.6091L95.4315 41.3819C95.423 41.459 95.4309 41.5372 95.4548 41.6111C95.4786 41.685 95.5178 41.753 95.5698 41.8107C95.6217 41.8684 95.6854 41.9144 95.7564 41.9457C95.8274 41.9771 95.9043 41.9931 95.982 41.9926H102.617C102.783 41.9881 102.941 41.9238 103.063 41.8115C103.185 41.6993 103.263 41.5466 103.281 41.3819L104.51 28.6091C104.519 28.5317 104.512 28.4531 104.489 28.3786C104.466 28.3042 104.427 28.2356 104.374 28.1777C104.322 28.1197 104.258 28.0737 104.186 28.0427C104.115 28.0118 104.037 27.9967 103.959 27.9984V27.9984Z" fill="#F37A20"/>
<path d="M95.982 41.7287C95.9423 41.73 95.9028 41.7225 95.8664 41.7069C95.8299 41.6913 95.7973 41.6678 95.7708 41.6382C95.7441 41.6075 95.7242 41.5715 95.7125 41.5325C95.7008 41.4935 95.6976 41.4524 95.703 41.412L96.932 28.6393C96.9429 28.5379 96.9901 28.4438 97.065 28.3745C97.1398 28.3052 97.2372 28.2653 97.3392 28.2623H103.974C104.013 28.2614 104.052 28.2683 104.088 28.2826C104.124 28.2968 104.158 28.3181 104.185 28.3452C104.211 28.3764 104.231 28.4125 104.242 28.4514C104.254 28.4903 104.258 28.5311 104.253 28.5714L103.024 41.3894C103.013 41.4908 102.966 41.5849 102.891 41.6542C102.817 41.7235 102.719 41.7634 102.617 41.7664L95.982 41.7287Z" fill="white"/>
<path d="M102.248 34.9427C102.188 35.5808 101.904 36.1769 101.445 36.6245C100.987 37.0721 100.384 37.3419 99.7443 37.3857C99.4483 37.3912 99.1547 37.332 98.8839 37.2124C98.6131 37.0927 98.3717 36.9154 98.1764 36.6929C97.9812 36.4704 97.8368 36.208 97.7534 35.9239C97.67 35.6399 97.6495 35.3411 97.6934 35.0483C97.7528 34.4102 98.0372 33.8141 98.4958 33.3665C98.9545 32.9189 99.5574 32.6491 100.197 32.6053C100.493 32.5985 100.787 32.6568 101.059 32.776C101.33 32.8952 101.572 33.0725 101.768 33.2953C101.963 33.5182 102.107 33.7812 102.19 34.0658C102.273 34.3504 102.293 34.6498 102.248 34.9427Z" fill="#F37A20"/>
<path d="M105.89 38.4563C104.564 36.8662 103.418 35.134 102.474 33.2914C102.086 33.4686 101.776 33.7823 101.603 34.1729C101.431 34.5635 101.408 35.0038 101.539 35.4102C101.818 36.2471 102.881 38.4262 102.881 38.4262C102.881 38.4262 102.368 41.0426 103.334 42.8672C104.299 44.6919 105.89 38.4563 105.89 38.4563Z" fill="#FFC3BD"/>
<path d="M74.6587 12.1342C74.5902 12.1121 74.5315 12.0668 74.4928 12.006C74.4726 11.9741 74.4591 11.9384 74.453 11.9011C74.447 11.8638 74.4486 11.8256 74.4578 11.789C74.467 11.7523 74.4835 11.7179 74.5064 11.6878C74.5292 11.6577 74.558 11.6326 74.5909 11.6139C74.9772 11.3693 75.4172 11.2222 75.873 11.1854C76.3288 11.1486 76.7867 11.2232 77.2072 11.4028C77.2416 11.4188 77.2724 11.4417 77.2976 11.47C77.3229 11.4983 77.3421 11.5315 77.3541 11.5675C77.3661 11.6035 77.3706 11.6416 77.3674 11.6794C77.3642 11.7172 77.3533 11.7539 77.3354 11.7874C77.3015 11.8534 77.2432 11.9037 77.1728 11.9277C77.1025 11.9516 77.0256 11.9472 76.9584 11.9155V11.9155C76.623 11.7786 76.2595 11.7242 75.8987 11.757C75.5379 11.7899 75.1902 11.9089 74.8849 12.104C74.8519 12.1257 74.8144 12.1396 74.7752 12.1448C74.7361 12.1501 74.6963 12.1464 74.6587 12.1342V12.1342Z" fill="#263238"/>
<path d="M60.2122 20.4885C61.117 24.9296 61.6825 31.0822 58.5986 34.0605C58.5986 34.0605 59.8503 38.5845 68.099 38.5845C77.147 38.5845 72.4345 34.6336 72.4345 34.6336C68.6645 33.4573 68.6645 29.1595 69.4939 25.7137L60.2122 20.4885Z" fill="#FFC3BD"/>
<path d="M56.9247 37.0162C56.1029 35.8777 56.1104 32.2585 56.97 31.6176C58.3573 30.5921 64.3139 30.3508 72.3516 32.1981C71.5146 35.7042 73.3619 37.544 73.3619 37.544L56.9247 37.0162Z" fill="#F37A20"/>
<path d="M47.726 35.4253C42.0408 36.7297 38.2256 51.9077 38.2256 51.9077L48.9475 59.9604C51.8879 56.8082 53.9496 52.9395 54.9267 48.7409C56.8418 41.1255 53.5469 34.0907 47.726 35.4253Z" fill="#263238"/>
<path opacity="0.1" d="M47.726 35.4253C42.0408 36.7297 38.2256 51.9077 38.2256 51.9077L48.9475 59.9604C51.8879 56.8082 53.9496 52.9395 54.9267 48.7409C56.8418 41.1255 53.5469 34.0907 47.726 35.4253Z" fill="white"/>
<path d="M81.226 39.806C84.3475 43.282 87.3183 46.8032 90.274 50.2263C91.782 51.9379 93.29 53.6268 94.798 55.2253C96.187 56.758 97.6865 58.1869 99.2843 59.5005C99.5879 59.7445 99.9051 59.971 100.234 60.1791C100.483 60.345 100.709 60.4053 100.468 60.3751C100.181 60.3507 99.8917 60.3815 99.6161 60.4656C99.3791 60.5371 99.1533 60.6411 98.945 60.7748C98.7957 60.8645 98.6588 60.9736 98.5378 61.099C98.47 61.2196 98.6359 61.099 98.7867 60.8125C99.2104 60.0687 99.542 59.2762 99.7744 58.4524C100.061 57.5024 100.325 56.4845 100.528 55.4364C101.426 51.214 102.036 46.6373 102.564 42.1585L107.126 42.0529C107.827 46.8194 108.029 51.646 107.729 56.4543C107.64 57.7188 107.481 58.9773 107.254 60.2243C107.008 61.6654 106.593 63.0725 106.018 64.4166C105.597 65.36 105.018 66.2246 104.306 66.9726C103.986 67.3081 103.624 67.5997 103.228 67.8397C102.774 68.1248 102.281 68.3431 101.765 68.4882C100.928 68.7181 100.052 68.7695 99.1938 68.639C98.1403 68.4765 97.1211 68.1401 96.1778 67.6437C95.4987 67.289 94.8415 66.8936 94.2099 66.4599C92.1385 64.9579 90.1896 63.2939 88.3815 61.4835C86.6473 59.787 85.0186 58.0604 83.4201 56.3337C80.2458 52.8578 77.2298 49.329 74.259 45.8456L81.226 39.806Z" fill="#FFC3BD"/>
<path opacity="0.4" d="M52.6948 46.1019C49.626 49.1632 48.6609 54.7352 48.4573 59.5759L48.9625 59.9604C51.9006 56.8066 53.962 52.9385 54.9417 48.7409C55.0548 48.2885 55.1528 47.8286 55.2357 47.3837L52.6948 46.1019Z" fill="#263238"/>
<path d="M37.8258 51.116L37.6071 51.6966C37.5545 51.8647 37.5569 52.0453 37.6138 52.212C37.6708 52.3788 37.7793 52.5231 37.9238 52.624L48.1782 60.3826C48.3477 60.5105 48.5602 60.5678 48.771 60.5425C48.9819 60.5172 49.1747 60.4113 49.3092 60.2469V60.1941C49.3766 60.111 49.4269 60.0154 49.4574 59.9128C49.4878 59.8101 49.4977 59.7025 49.4865 59.5961C49.4753 59.4896 49.4432 59.3865 49.3921 59.2924C49.3409 59.1984 49.2718 59.1153 49.1886 59.0481L39.1151 50.7541C39.0137 50.6701 38.8935 50.6119 38.7647 50.5846C38.6359 50.5573 38.5024 50.5616 38.3756 50.5972C38.2489 50.6328 38.1326 50.6986 38.0368 50.7889C37.9411 50.8793 37.8687 50.9915 37.8258 51.116V51.116Z" fill="#F37A20"/>
<path d="M83.7445 41.5101C85.0338 48.0699 86.1648 71.195 82.7567 97.8716H48.1934C47.937 92.8876 52.7174 58.9124 47.741 35.4253C51.3263 34.7295 54.9532 34.2686 58.5986 34.0455C63.1966 33.7775 67.8063 33.7775 72.4043 34.0455C73.9123 34.1812 75.4203 34.3999 76.7549 34.6336C78.4769 34.9425 80.0656 35.7643 81.3127 36.9913C82.5599 38.2183 83.4075 39.7933 83.7445 41.5101V41.5101Z" fill="#263238"/>
<path opacity="0.1" d="M83.7445 41.5101C85.0338 48.0699 86.1648 71.195 82.7567 97.8716H48.1934C47.937 92.8876 52.7174 58.9124 47.741 35.4253C51.3263 34.7295 54.9532 34.2686 58.5986 34.0455C63.1966 33.7775 67.8063 33.7775 72.4043 34.0455C73.9123 34.1812 75.4203 34.3999 76.7549 34.6336C78.4769 34.9425 80.0656 35.7643 81.3127 36.9913C82.5599 38.2183 83.4075 39.7933 83.7445 41.5101V41.5101Z" fill="white"/>
<path opacity="0.4" d="M84.6719 50.362L79.3486 51.6363C79.032 55.6475 82.3194 60.2997 85.0037 63.376C85.0263 58.377 84.8981 53.9661 84.6719 50.362Z" fill="#263238"/>
<path d="M60.0312 12.5036C59.9031 18.5356 59.5185 22.0417 62.2932 25.3895C66.4629 30.4262 74.0858 28.3452 76.0085 22.4941C77.7427 17.2161 77.6673 8.26615 71.9972 5.35571C70.759 4.70218 69.3733 4.37833 67.9737 4.41532C66.5741 4.45231 65.2075 4.8489 64.0055 5.56692C62.8035 6.28495 61.8065 7.30024 61.1104 8.51511C60.4144 9.72998 60.0428 11.1035 60.0312 12.5036V12.5036Z" fill="#FFC3BD"/>
<path d="M73.0452 17.0051C73.0452 17.0051 75.4354 18.9278 75.4806 15.9042C75.5581 14.4536 75.4492 12.9991 75.1564 11.5763C75.1564 11.5763 76.7021 11.4782 76.5664 8.9071C76.4307 6.33596 72.5023 2.46795 66.3723 3.41799C60.2423 4.36803 60.657 7.42926 60.657 7.42926C60.657 7.42926 54.9793 7.79119 58.1763 17.0051C60.4986 23.7081 60.853 24.9296 60.853 24.9296C60.853 24.9296 66.5155 26.1285 67.7747 24.824C69.0339 23.5196 70.655 16.1681 73.0452 17.0051Z" fill="#263238"/>
<path d="M58.9078 11.154C53.0191 14.17 48.2086 18.9127 60.3254 18.8976C72.4421 18.8825 75.526 9.84961 75.526 9.84961L58.9078 11.154Z" fill="#F37A20"/>
<path opacity="0.2" d="M58.9078 11.154C53.0191 14.17 48.2086 18.9127 60.3254 18.8976C72.4421 18.8825 75.526 9.84961 75.526 9.84961L58.9078 11.154Z" fill="white"/>
<path d="M76.8002 8.73366C76.0462 10.1436 72.8567 12.7902 70.7229 14.0117C68.5891 15.2331 64.2159 15.6554 62.5496 15.5951C60.8832 15.5347 57.362 15.1427 56.9172 14.0117C56.4723 12.8807 56.5176 9.48766 56.6608 7.30106C56.8041 5.11446 62.8059 1.26906 65.1961 0.763884C67.5863 0.258704 72.7361 1.75916 74.2441 3.10882C75.7521 4.45848 76.8002 8.73366 76.8002 8.73366Z" fill="#F37A20"/>
<path d="M69.6976 15.678C69.691 17.1765 70.1757 18.6358 71.0774 19.8326C72.2838 21.3933 73.739 20.5866 74.0934 18.8674C74.4327 17.2916 74.214 14.5847 72.6608 13.6422C71.1076 12.6997 69.7277 13.8835 69.6976 15.678Z" fill="#FFC3BD"/>
<path d="M71.0321 43.5006C68.1745 51.3497 85.8935 60.8426 85.8935 60.8426L92.6795 51.0406C92.6795 51.0406 87.688 41.2386 81.573 36.79C74.0481 31.331 73.2036 37.544 71.0321 43.5006Z" fill="#263238"/>
<path opacity="0.1" d="M71.0321 43.5006C68.1745 51.3497 85.8935 60.8426 85.8935 60.8426L92.6795 51.0406C92.6795 51.0406 87.688 41.2386 81.573 36.79C74.0481 31.331 73.2036 37.544 71.0321 43.5006Z" fill="white"/>
<path d="M92.8076 50.1962L93.1922 50.7013C93.2963 50.8435 93.3524 51.0152 93.3524 51.1914C93.3524 51.3677 93.2963 51.5394 93.1922 51.6815L86.3534 60.9633C86.2367 61.1227 86.0661 61.2344 85.8733 61.2774C85.6805 61.3204 85.4786 61.2918 85.3053 61.197L85.1997 61.1367C85.0986 61.0833 85.0099 61.0091 84.9393 60.9191C84.8687 60.8291 84.8179 60.7252 84.7902 60.6142C84.7624 60.5032 84.7584 60.3877 84.7783 60.275C84.7982 60.1624 84.8416 60.0552 84.9057 59.9605L91.4655 50.2339C91.5383 50.1243 91.6364 50.0338 91.7515 49.9701C91.8666 49.9063 91.9953 49.8711 92.1268 49.8674C92.2583 49.8637 92.3888 49.8916 92.5073 49.9488C92.6257 50.0061 92.7287 50.0909 92.8076 50.1962V50.1962Z" fill="#F37A20"/>
<path d="M245.802 20.7675H139.888C137.278 20.8052 134.778 21.8237 132.885 23.6202C130.992 25.4168 129.845 27.86 129.671 30.4639L118.693 234.338C118.614 235.588 118.793 236.841 119.22 238.018C119.646 239.196 120.311 240.273 121.171 241.182C122.032 242.092 123.071 242.815 124.223 243.305C125.376 243.796 126.616 244.044 127.869 244.034H233.783C236.393 243.998 238.894 242.981 240.787 241.184C242.681 239.387 243.828 236.943 244 234.338L254.978 30.479C255.059 29.2279 254.881 27.9736 254.456 26.7943C254.03 25.615 253.366 24.536 252.505 23.6248C251.644 22.7135 250.604 21.9895 249.451 21.4979C248.298 21.0063 247.056 20.7576 245.802 20.7675V20.7675Z" fill="#263238"/>
<path d="M154.756 18.1285H149.531V18.8825H154.756V18.1285Z" fill="#F37A20"/>
<path d="M127.424 25.02L126.768 24.643C127.897 22.6802 129.519 21.0464 131.474 19.9037C133.428 18.761 135.648 18.149 137.912 18.1285H146.146V18.8825H137.912C135.78 18.9028 133.691 19.4799 131.852 20.5564C130.012 21.633 128.486 23.1717 127.424 25.02V25.02Z" fill="#F37A20"/>
<path d="M243.826 20.7675H137.912C135.302 20.8052 132.803 21.8237 130.91 23.6202C129.017 25.4168 127.869 27.86 127.695 30.4639L116.725 234.338C116.645 235.587 116.823 236.84 117.249 238.018C117.674 239.195 118.338 240.272 119.198 241.182C120.059 242.092 121.097 242.814 122.249 243.305C123.401 243.796 124.641 244.044 125.893 244.034H231.815C234.424 243.997 236.923 242.978 238.814 241.181C240.706 239.384 241.852 236.941 242.024 234.338L253.003 30.479C253.083 29.2279 252.905 27.9736 252.48 26.7943C252.055 25.615 251.391 24.536 250.529 23.6248C249.668 22.7135 248.629 21.9895 247.476 21.4979C246.322 21.0063 245.08 20.7576 243.826 20.7675V20.7675Z" fill="#F37A20"/>
<path d="M125.984 242.406C124.941 242.416 123.907 242.211 122.946 241.804C121.986 241.397 121.12 240.796 120.402 240.038C119.685 239.281 119.131 238.384 118.776 237.403C118.421 236.423 118.272 235.379 118.338 234.338L129.309 30.4639C129.451 28.2936 130.406 26.2567 131.984 24.7598C133.562 23.2629 135.647 22.4162 137.822 22.3886H243.766C244.81 22.3781 245.845 22.5831 246.805 22.9909C247.766 23.3987 248.633 24.0004 249.35 24.7584C250.068 25.5164 250.622 26.4144 250.976 27.3961C251.331 28.3779 251.479 29.4222 251.412 30.4639L240.411 234.338C240.27 236.51 239.316 238.548 237.738 240.047C236.16 241.545 234.074 242.393 231.898 242.421L125.984 242.406Z" fill="white"/>
<path opacity="0.2" d="M130.485 102.011L133.72 41.9926C133.792 40.8345 134.297 39.7461 135.136 38.944C135.974 38.142 137.084 37.6852 138.244 37.6646H241.617C242.177 37.6582 242.732 37.7675 243.247 37.9858C243.762 38.2042 244.226 38.5267 244.611 38.9332C244.995 39.3396 245.292 39.8213 245.481 40.3478C245.671 40.8743 245.749 41.4343 245.711 41.9926L242.477 102.011C242.405 103.169 241.899 104.258 241.061 105.06C240.223 105.862 239.113 106.318 237.953 106.339H134.579C134.02 106.345 133.465 106.236 132.95 106.018C132.435 105.799 131.97 105.477 131.586 105.07C131.201 104.664 130.905 104.182 130.716 103.656C130.526 103.129 130.448 102.569 130.485 102.011Z" fill="#F37A20"/>
<path d="M193.565 29.8833H187.533C186.731 29.8919 185.952 29.6245 185.324 29.1261C184.697 28.6278 184.26 27.9287 184.087 27.1463L182.85 21.6044H198.737L197.35 26.8824C197.134 27.7278 196.647 28.479 195.963 29.021C195.279 29.563 194.437 29.8659 193.565 29.8833V29.8833Z" fill="#F37A20"/>
<path opacity="0.5" d="M192.577 25.7439C192.543 26.2748 192.309 26.7732 191.924 27.1395C191.538 27.5057 191.028 27.7128 190.496 27.7193C190.241 27.722 189.987 27.6718 189.752 27.5721C189.517 27.4723 189.305 27.3251 189.13 27.1397C188.954 26.9542 188.819 26.7345 188.732 26.4944C188.646 26.2542 188.609 25.9987 188.626 25.7439C188.66 25.213 188.894 24.7145 189.279 24.3483C189.665 23.982 190.175 23.7749 190.707 23.7684C190.963 23.7646 191.216 23.814 191.452 23.9134C191.688 24.0127 191.9 24.1599 192.076 24.3456C192.251 24.5313 192.387 24.7514 192.473 24.9921C192.559 25.2328 192.595 25.4888 192.577 25.7439Z" fill="white"/>
<path d="M208.449 174.855H157.358C157.253 174.855 157.153 174.815 157.077 174.744C157.002 174.672 156.956 174.574 156.95 174.47L155.322 138.391C155.321 138.337 155.331 138.283 155.35 138.232C155.37 138.182 155.4 138.135 155.438 138.096C155.476 138.057 155.521 138.025 155.571 138.004C155.621 137.982 155.675 137.97 155.729 137.969H213.96C214.019 137.969 214.078 137.982 214.131 138.006C214.184 138.031 214.232 138.067 214.27 138.113C214.308 138.156 214.336 138.208 214.352 138.264C214.368 138.32 214.371 138.379 214.36 138.437L208.848 174.516C208.832 174.61 208.783 174.696 208.71 174.758C208.637 174.82 208.545 174.854 208.449 174.855V174.855ZM157.742 174.018H208.102L213.493 138.746H156.151L157.742 174.018Z" fill="#F37A20"/>
<path d="M205.908 182.146H161.293C161.236 182.154 161.177 182.149 161.122 182.133C161.066 182.116 161.014 182.088 160.971 182.05C160.927 182.011 160.892 181.964 160.868 181.911C160.844 181.858 160.831 181.801 160.831 181.743C160.831 181.685 160.844 181.627 160.868 181.574C160.892 181.521 160.927 181.474 160.971 181.436C161.014 181.398 161.066 181.369 161.122 181.353C161.177 181.336 161.236 181.331 161.293 181.339H205.908C206.229 181.332 206.538 181.212 206.779 180.999C207.021 180.787 207.179 180.496 207.227 180.178L213.975 135.398C213.991 135.303 214.04 135.216 214.113 135.153C214.186 135.089 214.279 135.053 214.375 135.051H217.278C217.386 135.051 217.49 135.094 217.566 135.171C217.642 135.247 217.685 135.35 217.685 135.458C217.685 135.566 217.642 135.67 217.566 135.746C217.49 135.823 217.386 135.866 217.278 135.866H214.722L208.026 180.299C207.953 180.809 207.698 181.276 207.309 181.615C206.921 181.954 206.423 182.142 205.908 182.146V182.146Z" fill="#F37A20"/>
<path d="M164.687 189.746C164.14 189.752 163.598 189.644 163.095 189.43C162.592 189.217 162.138 188.902 161.762 188.505C161.386 188.108 161.097 187.637 160.911 187.123C160.725 186.609 160.648 186.062 160.683 185.516C160.757 184.393 161.252 183.338 162.07 182.564C162.888 181.789 163.968 181.352 165.094 181.339C165.639 181.334 166.18 181.441 166.683 181.655C167.185 181.868 167.638 182.183 168.013 182.579C168.388 182.975 168.677 183.445 168.862 183.958C169.048 184.471 169.125 185.017 169.09 185.562C169.018 186.686 168.524 187.741 167.708 188.517C166.892 189.292 165.813 189.732 164.687 189.746V189.746ZM165.094 182.146C164.173 182.157 163.291 182.515 162.623 183.148C161.955 183.782 161.55 184.643 161.49 185.562C161.459 185.997 161.52 186.435 161.667 186.846C161.815 187.257 162.046 187.633 162.347 187.95C162.648 188.267 163.011 188.518 163.414 188.687C163.816 188.856 164.25 188.939 164.687 188.932C165.606 188.921 166.488 188.562 167.154 187.929C167.821 187.296 168.224 186.434 168.283 185.516C168.314 185.081 168.253 184.645 168.106 184.234C167.959 183.824 167.728 183.448 167.428 183.131C167.129 182.814 166.766 182.563 166.364 182.394C165.963 182.224 165.53 182.14 165.094 182.146V182.146Z" fill="#F37A20"/>
<path d="M203.57 189.746C203.024 189.751 202.483 189.642 201.981 189.428C201.479 189.214 201.026 188.899 200.651 188.502C200.276 188.105 199.987 187.635 199.802 187.121C199.616 186.608 199.539 186.061 199.574 185.516C199.645 184.393 200.138 183.337 200.955 182.562C201.772 181.787 202.852 181.35 203.978 181.339C204.524 181.334 205.065 181.441 205.567 181.655C206.07 181.868 206.523 182.182 206.899 182.579C207.275 182.975 207.565 183.444 207.751 183.957C207.937 184.471 208.016 185.017 207.981 185.562V185.562C207.907 186.686 207.412 187.742 206.595 188.517C205.777 189.293 204.697 189.732 203.57 189.746V189.746ZM203.978 182.146C203.057 182.156 202.175 182.513 201.508 183.147C200.841 183.781 200.438 184.643 200.381 185.562C200.351 185.997 200.411 186.433 200.558 186.844C200.705 187.255 200.936 187.63 201.236 187.947C201.536 188.264 201.898 188.515 202.3 188.684C202.702 188.854 203.134 188.938 203.57 188.932C204.491 188.921 205.373 188.563 206.041 187.93C206.709 187.297 207.114 186.435 207.175 185.516C207.205 185.081 207.144 184.643 206.997 184.232C206.849 183.821 206.618 183.445 206.317 183.128C206.016 182.811 205.653 182.56 205.251 182.391C204.848 182.222 204.414 182.139 203.978 182.146V182.146Z" fill="#F37A20"/>
<path d="M170.522 109.061C162.817 109.061 154.854 108.903 147.05 108.488C147.001 108.486 146.952 108.474 146.907 108.453C146.862 108.433 146.822 108.403 146.788 108.367C146.755 108.33 146.728 108.288 146.711 108.241C146.694 108.195 146.687 108.145 146.689 108.096C146.694 107.995 146.74 107.901 146.814 107.833C146.889 107.765 146.987 107.73 147.088 107.734C179.51 109.445 214.865 106.829 221.621 106.286C221.721 106.278 221.82 106.31 221.896 106.375C221.973 106.44 222.02 106.533 222.028 106.633C222.036 106.733 222.004 106.832 221.939 106.908C221.874 106.985 221.781 107.032 221.681 107.04C216.539 107.455 194.877 109.061 170.522 109.061Z" fill="white"/>
<path d="M177.007 122.829L185.301 129.924L194.349 122.829H177.007Z" fill="#F37A20"/>
<path d="M191.341 227.691C197.759 221.443 198.163 211.448 192.243 205.367C186.323 199.286 176.321 199.421 169.903 205.669C163.485 211.917 163.081 221.912 169 227.993C174.92 234.074 184.922 233.939 191.341 227.691Z" fill="#FF5552"/>
<path d="M187.3 210.71C187.113 210.523 186.859 210.418 186.595 210.418C186.33 210.418 186.077 210.523 185.89 210.71L181 215.59L176.11 210.7C175.923 210.513 175.669 210.408 175.405 210.408C175.14 210.408 174.887 210.513 174.7 210.7C174.31 211.09 174.31 211.72 174.7 212.11L179.59 217L174.7 221.89C174.31 222.28 174.31 222.91 174.7 223.3C175.09 223.69 175.72 223.69 176.11 223.3L181 218.41L185.89 223.3C186.28 223.69 186.91 223.69 187.3 223.3C187.69 222.91 187.69 222.28 187.3 221.89L182.41 217L187.3 212.11C187.68 211.73 187.68 211.09 187.3 210.71Z" fill="white"/>
</svg>
